<svg width="40" height="40" viewBox="0 0 40 40" fill="none" xmlns="http://www.w3.org/2000/svg">
<path fill-rule="evenodd" clip-rule="evenodd" d="M0 0H40V26.2978C39.6939 25.6386 39.2937 25.0265 38.7993 24.485C37.528 23.1195 35.8564 22.4367 33.8081 22.4367C31.6892 22.4367 29.9941 23.1195 28.7228 24.4614C27.4514 25.8034 26.8158 27.6162 26.8158 29.8293C26.8158 32.0424 27.4514 33.8081 28.7463 35.1736C30.0177 36.5156 31.7128 37.1983 33.8081 37.1983C35.8799 37.1983 37.5515 36.5156 38.8228 35.1736C39.3172 34.6321 39.7175 34.0436 40.0235 33.3843V40H0.0235433V36.8687H10.6651V34.279H3.01354V30.8181H9.91171V28.3932H3.01354V25.3325H10.5238V22.7899H0.0235433V0L0 0ZM25.3561 31.4303C25.1913 33.196 24.5792 34.6086 23.4962 35.6445C22.4132 36.6804 20.93 37.1983 19.0465 37.1983C16.9982 37.1983 15.3502 36.5156 14.1024 35.1736C12.8546 33.8317 12.2425 32.0188 12.2425 29.8058C12.2425 27.6869 12.8782 25.9447 14.126 24.5321C15.3973 23.143 17.0689 22.4367 19.1642 22.4367C20.8358 22.4367 22.2484 22.9076 23.3785 23.8729C24.5085 24.8146 25.1442 26.0388 25.2619 27.4985H22.2248C22.06 26.7216 21.7069 26.1095 21.1654 25.6857C20.6239 25.2619 19.9176 25.05 19.0936 25.05C18.246 25.05 17.5162 25.2855 16.9276 25.7799C16.339 26.2507 15.9388 26.8629 15.6798 27.5456C15.4444 28.2519 15.3267 29.0053 15.3267 29.8529C15.3267 31.3125 15.6563 32.4662 16.339 33.3373C17.0218 34.2084 17.9164 34.6321 19.0465 34.6321C20.93 34.6321 22.0129 33.5727 22.2719 31.4538H25.3325L25.3561 31.4303ZM33.761 24.9794C32.6074 24.9794 31.6657 25.4032 30.9829 26.2743C30.3002 27.1454 29.947 28.3225 29.947 29.7822C29.947 31.289 30.3002 32.4897 30.9829 33.3373C31.6657 34.1848 32.6074 34.6321 33.8081 34.6557C34.9853 34.6557 35.9035 34.2084 36.5862 33.3373C37.269 32.4662 37.5986 31.289 37.5986 29.7822C37.5986 28.299 37.2454 27.1218 36.5627 26.2743C35.8799 25.4032 34.9382 24.9794 33.761 24.9794ZM23.2372 18.0812C22.8134 18.6698 19.1171 15.8446 18.6933 12.1248C18.2696 8.40494 20.6945 3.03708 20.8829 2.66039C20.9064 2.6133 22.7663 15.0912 23.2372 18.1048V18.0812ZM24.9794 22.4603C25.7328 22.9782 29.3349 18.8111 27.8988 13.3019C26.4626 7.79282 21.5656 3.17834 21.1654 2.80165C21.1183 2.75456 24.226 18.6227 24.9794 22.4603ZM30.6062 16.6922C30.1118 16.7863 29.5703 13.5609 31.1242 11.4656C32.7016 9.34667 36.4921 7.76928 36.7981 7.65156C36.8217 7.65156 31.8069 14.9264 30.6062 16.6922ZM29.4055 19.7763C29.5468 20.412 33.3843 19.9882 35.2913 16.4803C37.1983 12.9488 36.8923 8.26368 36.8687 7.86345C36.8687 7.81636 30.8417 17.4456 29.4055 19.7763Z" fill="#333333"/>
</svg>
