<svg width="40" height="40" viewBox="0 0 40 40" fill="none" xmlns="http://www.w3.org/2000/svg">
<g clip-path="url(#clip0_298_18946)">
<path fill-rule="evenodd" clip-rule="evenodd" d="M0 0H40V28.0988C39.3985 22.986 36.0902 17.8518 32.0516 16.1117C32.3308 16.9495 32.4597 18.5177 31.8153 19.2266C31.4286 19.6348 30.6337 20.1074 29.5811 19.5059C31.7938 12.6745 24.9839 8.87218 23.3083 7.69065C24.4683 9.70999 23.3727 12.1375 21.6112 14.9087C18.0021 9.96778 13.6627 5.90763 15.3598 2.49194C13.7701 3.80236 7.17508 8.1203 9.79592 14.7798C8.78625 15.4672 7.94844 15.0591 7.54028 14.6724C6.85285 14.0279 6.89581 12.4382 7.13212 11.5789C3.43716 13.5338 0.558539 18.4533 0 23.3298V0.0214823L0 0ZM40 31.3426V40H31.3426C36.9495 38.797 39.4844 35.3169 40 31.3426ZM28.507 40C37.1214 38.9474 37.3792 27.9484 32.696 24.189C21.9549 31.3426 27.3899 17.3792 26.015 16.4125C25.3491 22.8571 18.3029 26.5521 18.5822 33.4049C18.7755 38.2814 22.0408 39.6778 25.3276 40C20.3652 40 16.7132 37.2073 16.4554 31.8582C16.0473 23.4801 24.5328 19.9141 25.3491 12.0516C26.7025 13.0612 29.1944 16.6058 27.261 21.3749C28.5499 22.2556 31.9012 23.2223 33.319 20.2148C39.9785 26.2299 39.1837 40.0215 28.5499 40.0215L28.507 40ZM21.9764 40H0V26.6595C0.537057 30.9989 3.35123 34.6939 9.60258 35.4028C0.730397 32.7175 0.794845 21.3749 6.1869 15.768C7.77658 18.6681 11.0634 17.4436 12.2879 16.4554C10.0537 11.8582 12.3523 8.1203 13.6412 7.00322C14.3502 11.3856 17.4221 14.2213 20 17.3577C17.2073 21.4178 13.9635 26.101 14.2213 31.2567C14.4146 34.9087 17.1643 39.3985 21.9979 40.0215L21.9764 40Z" fill="#333333"/>
</g>
<defs>
<clipPath id="clip0_298_18946">
<rect width="40" height="40" fill="white"/>
</clipPath>
</defs>
</svg>
