<svg width="40" height="40" viewBox="0 0 40 40" fill="none" xmlns="http://www.w3.org/2000/svg">
<g clip-path="url(#clip0_298_18940)">
<path fill-rule="evenodd" clip-rule="evenodd" d="M0.00195312 0H22.5835L21.7294 3.57294L18.2088 4.43975L21.7294 5.30655L22.5835 8.87949L23.4376 5.30655L26.9581 4.43975L23.4376 3.57294L22.5835 0H33.1035L31.6661 4.35518L25.2708 6.51163L31.6661 8.66808L33.7909 15.1586L35.9158 8.66808L39.3946 7.50529V40H15.709L22.3335 33.9535C24.5625 31.9662 25.5832 30.3805 25.6457 29.1543C25.6666 28.6258 25.5208 28.1607 25.2708 27.8224C25 27.463 24.6042 27.2304 24.1459 27.1459C24.0209 27.1247 23.8751 27.1036 23.7292 27.1036L24.1875 26.6808C25.7291 25.222 26.2707 23.8478 26.1457 22.8118C26.104 22.3679 25.9166 21.9662 25.6457 21.6702C25.3749 21.3742 25 21.1628 24.5833 21.0571C24.2292 20.9725 23.8334 20.9725 23.4168 21.0571C23.8959 20.2537 24.1042 19.5349 24.0834 18.9218C24.0625 18.4144 23.8959 17.9704 23.6042 17.6321C23.3126 17.2939 22.9168 17.0613 22.4585 16.9556C21.6461 16.7865 20.5836 17.019 19.4796 17.7801C19.5004 17.5899 19.4796 17.3784 19.4587 17.2093C19.3962 16.8076 19.2296 16.4271 18.9796 16.1311C18.7296 15.8351 18.3755 15.6237 17.9589 15.4968C16.9798 15.222 15.584 15.5603 14.0217 16.9133L4.35577 26.0677L4.29328 19.3023L4.25161 19.2178C3.93914 18.4778 3.41835 17.9493 2.7934 17.6533C2.46009 17.4841 2.10595 17.3996 1.73098 17.3784C1.35601 17.3573 1.00187 17.4419 0.647735 17.5899C0.439418 17.6956 0.21027 17.8224 0.0227848 17.9915V0.0211416L0.00195312 0ZM33.8118 0.190275L35.3533 4.90486L39.9988 6.46934L35.3533 8.03383L33.8118 12.7484L32.2702 8.03383L27.6248 6.46934L32.2702 4.90486L33.8118 0.190275ZM25.7291 7.58985L26.2499 9.80972L28.4372 10.3594L26.2499 10.8879L25.7291 13.1078L25.2083 10.8879L23.021 10.3383L25.2083 9.80972L25.7499 7.58985H25.7291ZM34.52 0H39.4155V5.51797L35.9366 4.35518L34.4992 0L34.52 0ZM14.3133 40H0.0227848V32.2833H0.0436165V19.4926C0.314428 18.9852 0.647735 18.6469 1.04354 18.4989C1.27269 18.3932 1.50183 18.351 1.73098 18.3721C1.96013 18.3721 2.18928 18.4355 2.41843 18.5412C2.81423 18.7315 3.14754 19.0698 3.37668 19.5349L3.46001 28.3087L14.6883 17.6533C15.9798 16.5539 17.0423 16.2579 17.7505 16.4693C17.9797 16.5328 18.1672 16.6596 18.2922 16.8076C18.438 16.9556 18.5213 17.167 18.563 17.3784C18.6463 17.9493 18.3963 18.7104 17.6672 19.4292L10.022 26.5539L10.6678 27.2727L19.2713 19.2389C20.4378 18.1395 21.5419 17.7801 22.3127 17.9281C22.5835 17.9915 22.7918 18.0972 22.9376 18.2875C23.0834 18.4567 23.1668 18.6892 23.1876 18.9852C23.2293 19.8097 22.6668 20.9514 21.2294 22.241C20.292 23.0655 19.3546 23.8901 18.4172 24.7146C17.0423 25.9197 15.834 26.9979 13.5634 29.0063L14.1883 29.7463L21.896 22.9387C22.896 22.1353 23.8126 21.8816 24.4583 22.0296C24.6875 22.093 24.8958 22.1987 25.0208 22.3467C25.1458 22.4947 25.2499 22.7061 25.2708 22.9387C25.3541 23.6998 24.8958 24.778 23.6042 25.9831L15.4174 33.3404L16.0423 34.0592C17.7714 32.5159 19.6046 30.7188 21.3752 29.2812C22.396 28.3087 23.3751 27.9704 24.0417 28.0972C24.2709 28.1395 24.4583 28.2452 24.5833 28.4144C24.7083 28.5835 24.7708 28.8372 24.7708 29.1332C24.7292 30.1057 23.7917 31.4165 21.8127 33.2135L14.355 40H14.3133Z" fill="#333333"/>
</g>
<defs>
<clipPath id="clip0_298_18940">
<rect width="40" height="40" fill="white"/>
</clipPath>
</defs>
</svg>
