<svg width="40" height="40" viewBox="0 0 40 40" fill="none" xmlns="http://www.w3.org/2000/svg">
<g clip-path="url(#clip0_298_18949)">
<path d="M-0.000888728 2.67997e-05V40H26.9568V26.6931H28.5441V23.3069H23.5705V25.2646H16.8245V26.6931H23.5705V36.6138H3.38535V26.6931H10.3695V25.2646H3.38535V15.0265H7.75043V13.5979H3.38535V3.35981H18.3324V13.5979H13.597V15.0265H26.4012V13.5979H21.6658V3.35981H36.6129V13.5979H32.3801V15.0265H36.6129V23.2804H34.761V26.6667H39.9727V-0.0264282H-0.0273438L-0.000888728 2.67997e-05ZM24.8404 0.317487H34.2584V3.14817H24.8404V0.317487ZM5.55467 0.317487H14.9727V3.14817H5.55467V0.317487ZM0.237206 16.6667H3.06789V23.6773H0.237206V16.6667ZM9.04673 36.9048H18.4647V39.7355H9.04673V36.9048Z" fill="#333333"/>
</g>
<defs>
<clipPath id="clip0_298_18949">
<rect width="40" height="40" fill="white"/>
</clipPath>
</defs>
</svg>
