<svg width="42" height="52" viewBox="0 0 42 52" fill="none" xmlns="http://www.w3.org/2000/svg">
<g clip-path="url(#clip0_298_18952)">
<path fill-rule="evenodd" clip-rule="evenodd" d="M22.3605 20.39C22.1687 20.1981 22.0248 19.9823 21.8569 19.7425L22.0488 19.6226L21.3053 19.2389L21.2574 20.1022L21.4972 19.9823V20.0063V20.0303V20.0542L21.5212 20.0782L21.5451 20.1022L21.713 20.2941L22.0248 20.0063L22.3605 20.39ZM27.5886 20.0542C27.4447 20.2701 27.2528 20.4619 27.037 20.6298L27.3008 20.9656C27.5406 20.7737 27.7564 20.5579 27.9243 20.318L28.1401 20.438V19.5746L27.3727 19.9104L27.5646 20.0542H27.5886ZM26.7252 20.8696C26.5094 21.0135 26.2456 21.1334 26.0058 21.2294L26.1496 21.637C26.4374 21.5171 26.6772 21.3972 26.941 21.2294L26.7012 20.8696H26.7252ZM23.3198 21.1094C23.08 20.9895 22.8641 20.8456 22.6723 20.6538L22.3845 20.9656C22.6243 21.1574 22.8641 21.3253 23.1279 21.4692L23.3198 21.0855V21.1094ZM25.646 21.3493C25.5741 21.3732 25.5261 21.3732 25.4542 21.3972H25.4302H25.4062H25.3582H25.3343H25.3103H25.2863H25.2623H25.2383H25.2144H25.1904H25.1664H25.1424H25.1184H25.0944H25.0705H25.0465H25.0225H24.9985H24.9745H24.9506H24.9266H24.9026H24.8786H24.8546H24.8307H24.8067H24.7827H24.7587H24.7347H24.7107H24.6868V21.8289C24.9745 21.8289 25.2863 21.7809 25.5741 21.709L25.4782 21.3013L25.646 21.3493ZM24.4709 21.4452H24.4469H24.423H24.399H24.375H24.351H24.327H24.3031H24.2791H24.2551H24.2311H24.2071H24.1831H24.1592H24.1352H24.1112H24.0872H24.0632H24.0392H24.0153H23.9913C23.8714 21.4212 23.7515 21.3732 23.6316 21.3493L23.4877 21.757C23.7755 21.8529 24.0632 21.9248 24.375 21.9488L24.423 21.5171L24.4709 21.4452ZM23.9913 11.3728C23.8474 11.4928 23.6316 11.6127 23.3678 11.7086C23.08 11.8045 22.7203 11.9004 22.3126 11.9484C22.0488 11.9964 21.785 12.0204 21.4972 12.0443C21.2094 12.0683 20.9216 12.0683 20.6338 12.0683C20.1542 12.0683 19.7225 12.0443 19.2909 11.9964C18.8592 11.9484 18.4755 11.8765 18.1637 11.7805L18.0198 11.7326L17.8759 11.6846C17.732 11.6366 17.6121 11.5887 17.5162 11.5407C17.4203 11.4928 17.3244 11.4448 17.2764 11.3728V17.6561C17.2764 17.752 17.3483 17.8479 17.4922 17.9438C17.6601 18.0398 17.8999 18.1357 18.1877 18.2316C18.4995 18.3276 18.8592 18.3755 19.2909 18.4235C19.6985 18.4714 20.1302 18.4954 20.5859 18.4954C20.9216 18.4954 21.3533 18.4714 21.785 18.3995C22.1927 18.3515 22.6243 18.2556 22.9841 18.1597C23.2958 18.0877 23.5596 17.9918 23.7275 17.8959C23.8714 17.8239 23.9673 17.728 23.9673 17.6561V11.3728H23.9913ZM17.0845 11.0131C17.0845 10.9412 17.1085 10.8452 17.1565 10.7733C17.2044 10.7253 17.2524 10.6534 17.3244 10.6054L16.7008 10.1258L2.19185 14.6104L17.9719 28.9994C18.0198 29.0474 18.0198 29.0234 18.0678 29.0234L33.7279 23.004L24.2071 15.8095V17.6561C24.2071 17.8 24.0872 17.9199 23.8954 18.0398C23.7035 18.1597 23.3917 18.2556 23.056 18.3515C22.6723 18.4475 22.2646 18.5434 21.8329 18.5914C21.4013 18.6633 20.9696 18.6873 20.6099 18.6873C20.1542 18.6873 19.6985 18.6633 19.2909 18.6153C18.8592 18.5674 18.4755 18.4954 18.1637 18.3995C17.828 18.3036 17.5642 18.1837 17.3723 18.0638C17.1805 17.9438 17.0845 17.8 17.0845 17.6321V10.9891V11.0131ZM19.2429 10.2457C19.051 10.2697 18.8832 10.2937 18.7153 10.3176C18.5234 10.3416 18.3556 10.3896 18.2117 10.4376C17.8999 10.5095 17.6601 10.6294 17.4922 10.7253C17.3483 10.8213 17.2524 10.9172 17.2524 11.0131V11.0371C17.2524 11.109 17.3004 11.181 17.3963 11.2529C17.4922 11.3249 17.6601 11.4208 17.828 11.4928C18.0198 11.5647 18.2357 11.6127 18.4515 11.6606C18.7633 11.7326 19.0271 11.7805 19.2189 11.8045V10.2697L19.2429 10.2457ZM23.4877 11.4208C23.6316 11.3489 23.7515 11.3009 23.8474 11.229C23.9193 11.157 23.9673 11.109 23.9673 11.0371V11.0131C23.9673 10.9172 23.8954 10.8213 23.7275 10.7253C23.5596 10.6294 23.3198 10.5335 23.008 10.4376C22.8881 10.4136 22.7682 10.3656 22.6483 10.3416C22.5284 10.3176 22.4325 10.2937 22.2886 10.2697V11.7086C22.4325 11.6846 22.6963 11.6366 22.9361 11.5887C23.104 11.5407 23.2958 11.4928 23.4637 11.4208H23.4877ZM36.222 18.5914L39.7953 15.2339V14.6583L36.222 18.0158V18.5914ZM36.0301 18.0158L35.0709 17.2004L32.5528 17.9918C32.5768 18.0877 32.6007 18.2076 32.6007 18.3036C32.6247 18.3995 32.6247 18.4954 32.6247 18.5914L35.0709 17.8239L36.0062 18.6153V18.0398L36.0301 18.0158ZM32.7207 14.5384V15.066L33.0324 15.5217L33.3202 15.4258L32.7207 14.5384ZM21.4252 11.8045C21.5451 11.8045 21.6651 11.7805 21.785 11.7805C21.9049 11.7805 22.0248 11.7566 22.1207 11.7326V7.51178L21.4252 7.24798V11.8045ZM22.7922 7.58372H23.4637L21.1375 -0.0424805H20.442L21.5931 3.74664L22.7682 7.58372H22.7922ZM17.804 29.8388L17.828 29.1433L2 14.7063V14.8502C2 14.8742 2.02398 14.9221 2.02398 14.9461C2.04796 15.09 2.07195 15.2339 2.07195 15.3778L17.804 29.8388ZM18.0438 30.1506L17.2044 52.2618C17.3723 52.1898 17.6121 52.0939 17.828 51.974C17.9958 51.902 18.1397 51.8301 18.2596 51.7821C18.2596 51.1106 18.4275 50.4152 18.5954 49.6717C18.8112 48.6645 19.075 47.5853 18.9551 46.4342V46.3862C22.5284 44.7795 26.1017 43.1727 29.675 41.5899V41.6618C29.651 42.5731 30.0107 43.1727 30.3225 43.7482C30.7302 44.4437 31.0899 45.0672 30.7062 46.0505L31.4017 45.7147C31.6415 44.9953 31.7374 44.3718 31.6894 43.7003C31.6415 43.0048 31.4017 42.2614 30.97 41.3261V41.3021L33.0084 24.299L18.0678 30.1026L18.0438 30.1506ZM3.53483 16.9846L3.72669 25.9538L3.89456 33.484C3.51085 34.2994 3.27103 34.899 3.17511 35.4745C3.07918 36.0741 3.15113 36.6736 3.34298 37.513L3.89456 38.0646C3.63076 36.7456 4.03845 36.17 4.51809 35.4745C4.70994 35.1867 4.92578 34.899 5.11763 34.5153L5.14161 34.4433C8.76286 38.2324 12.4081 42.0455 16.0293 45.8347V45.8586C15.8854 47.6333 16.0054 48.4487 16.1253 49.2401C16.2212 49.8156 16.3171 50.4152 16.2931 51.3505L16.9646 52.1179L17.756 30.0546L3.51085 16.9366L3.53483 16.9846ZM33.8238 23.1239L18.0678 29.1673L18.0438 29.8868C20.6578 28.8795 23.2718 27.8723 25.8858 26.8411C28.4999 25.8099 31.1379 24.7787 33.7519 23.7714C33.7519 23.6995 33.7759 23.5796 33.7759 23.4836C33.7998 23.3398 33.8238 23.1959 33.7998 23.1239V23.0999L33.8238 23.1239ZM16.0054 30.1506L4.7579 19.9104L4.94976 30.2705L15.8375 41.1582L15.9814 30.1506H16.0054ZM16.1972 30.0786L16.0533 41.6139C12.2882 37.8487 8.54702 34.0836 4.7579 30.3424C4.68596 26.6972 4.61401 23.076 4.54207 19.4307C8.42712 22.98 12.3361 26.5053 16.1972 30.0546V30.0786ZM5.0217 31.9012L5.04569 33.0764L15.8135 43.9401V42.741L5.0217 31.9012ZM4.90179 31.4936L16.0293 42.6451L16.0054 44.4197C12.2882 40.6786 8.57101 36.9134 4.85383 33.1723C4.82985 32.5727 4.82985 31.9972 4.80587 31.3976L4.90179 31.4936ZM19.7225 30.6062L31.7134 25.9777C31.2578 30.0067 30.8021 34.0356 30.3225 38.0646C26.5573 39.6234 22.7922 41.2062 19.0271 42.765C19.2429 38.7121 19.4587 34.6831 19.6746 30.6302L19.7465 30.6062H19.7225ZM31.4736 26.2655L19.8664 30.7741L19.2429 42.4532L30.1306 37.9207L31.4736 26.2895V26.2655ZM30.2265 39.0478L30.1306 40.1989C26.3895 41.8777 22.6723 43.5564 18.9311 45.2351C18.9551 44.7075 18.9551 44.2039 18.9791 43.6763C22.7203 42.0695 26.4854 40.4627 30.2505 38.8799L30.2265 39.0478ZM29.9388 40.055L30.0107 39.1917L19.1709 43.8202L19.147 44.9233L29.9388 40.055ZM36.246 17.4163L39.2917 14.7303L33.2003 14.6344L33.7519 15.5217L31.7614 16.2172C31.7374 16.1932 31.7134 16.1692 31.6894 16.1212L33.632 15.4977L32.8645 14.3466L39.6034 14.5384L36.15 17.8L35.1188 16.9366L32.5288 17.752L32.5048 17.68L35.2627 16.7448L36.27 17.3923L36.246 17.4163ZM9.96195 31.6135C9.31444 31.0139 8.73888 30.3904 8.95471 29.2393C9.19453 28.0881 10.2737 27.9922 10.0819 26.8411C10.5855 27.9682 10.0579 28.28 9.69815 28.9035C9.33842 29.527 9.21851 30.5343 9.93797 31.6135H9.96195ZM11.7846 35.2347C12.3361 34.4673 13.0796 32.7166 12.4321 31.3257C11.7846 29.9347 10.5615 29.6949 10.5375 28.1841C10.3217 29.6949 10.8253 30.0307 11.0171 30.3664C12.576 32.189 12.7199 33.532 11.7606 35.2107L11.7846 35.2347ZM5.5493 21.1814C8.73888 24.7787 13.2714 27.7764 15.118 30.3904C16.1492 31.8533 15.4298 40.0071 14.5185 39.1437L11.0171 35.8343C11.6407 34.899 12.0723 34.1315 11.8085 32.6447C11.5447 31.1338 9.79408 30.1506 10.3936 28.3999C9.31444 30.0067 9.98593 30.894 10.2257 31.4216C10.4416 31.8773 11.209 33.2922 9.96195 34.899L9.74611 34.6831C10.9692 30.942 7.58775 31.9252 8.78684 28.6397C8.06739 29.3112 7.56377 29.9587 7.87553 31.0859C8.16332 32.213 9.05064 32.4528 8.73888 33.508C5.71717 30.4863 5.64523 31.4696 5.35745 26.3375C5.26152 24.4909 4.90179 20.4619 5.5493 21.2054V21.1814ZM17.4443 11.7805C17.6841 11.9004 17.3723 12.0443 20.4899 12.2842C23.6076 12.548 23.4157 15.6176 23.4877 17.4642C23.5117 18.0877 20.0103 18.5674 18.4275 18.0398C17.4443 17.704 17.3963 17.5601 17.3963 15.8095L17.4203 11.7566L17.4443 11.7805ZM18.2836 4.80184L20.3221 0.413173L22.4804 7.31992L21.1375 6.79233V11.7566C21.1614 11.7566 21.2094 11.7566 21.2334 11.7566V6.91223L22.5764 7.43983L20.3461 0.173356L18.2596 4.82582L19.4108 5.71315V11.7326H19.4347L19.4587 5.61722L18.3076 4.77786L18.2836 4.80184ZM25.646 16.6249C27.1809 15.9534 28.8356 15.4497 29.9627 15.5936C30.994 15.7375 32.7446 18.6153 31.5216 21.0615L31.6415 21.1574C31.9293 20.8456 32.1211 20.4859 32.265 20.1022C32.4089 19.6705 32.4808 19.2389 32.4569 18.7832C32.4569 18.5194 32.4089 18.2316 32.3609 17.9678C32.289 17.704 32.217 17.4402 32.0971 17.1764C31.9772 16.9366 31.8573 16.6968 31.7134 16.481C31.5695 16.2651 31.4017 16.0733 31.2098 15.9054C30.97 15.6896 30.7062 15.4977 30.4424 15.3778C30.1786 15.2579 29.9148 15.2099 29.627 15.2099C28.9795 15.2339 27.6605 15.6416 26.5573 16.0013C26.2935 16.0733 26.0537 16.1692 25.8619 16.2172C25.694 16.2651 25.5261 16.3131 25.3822 16.3611L25.694 16.6009L25.646 16.6249Z" fill="#333333"/>
</g>
<defs>
<clipPath id="clip0_298_18952">
<rect width="42" height="52" fill="white"/>
</clipPath>
</defs>
</svg>
