<svg width="40" height="40" viewBox="0 0 40 40" fill="none" xmlns="http://www.w3.org/2000/svg">
<g clip-path="url(#clip0_298_18943)">
<path fill-rule="evenodd" clip-rule="evenodd" d="M0.000244141 23.9906H40.0002V40H0.000244141V23.9906ZM3.87348 16.9483L0.000244141 20.8216V19.9765L3.02841 16.9483H3.87348ZM7.81715 16.9483L1.71386 23.0516H0.868789L6.97207 16.9483H7.81715ZM11.7608 16.9483L5.65752 23.0516H4.81245L10.9157 16.9483H11.7608ZM15.7045 16.9483L9.60118 23.0516H8.75611L14.8594 16.9483H15.7045ZM19.6481 16.9483L13.5448 23.0516H12.6998L18.8031 16.9483H19.6481ZM23.5918 16.9483L17.4885 23.0516H16.6434L22.7467 16.9483H23.5918ZM27.5355 16.9483L21.4322 23.0516H20.5871L26.6904 16.9483H27.5355ZM31.4791 16.9483L25.3758 23.0516H24.5308L30.634 16.9483H31.4791ZM35.4228 16.9483L29.3195 23.0516H28.4744L34.5777 16.9483H35.4228ZM39.3664 16.9483L33.2632 23.0516H32.4181L38.5214 16.9483H39.3664ZM40.0472 20.1878L37.1833 23.0516H36.3383L40.0472 19.3427V20.1878ZM16.4556 9.60092C16.1035 9.46007 15.8218 9.2488 15.6106 8.96711C15.3993 8.66195 15.3054 8.33331 15.3054 7.93425C15.3054 7.30045 15.5402 6.78401 16.0096 6.38495C16.4791 5.98589 17.0894 5.77462 17.8406 5.77462C18.5683 5.77462 19.1552 5.96242 19.6247 6.36148C20.0941 6.76054 20.3054 7.2535 20.3054 7.8873C20.3054 8.7089 19.9298 9.27228 19.1552 9.60092C19.6481 9.76523 20.0237 9.99998 20.2585 10.3286C20.4932 10.6338 20.634 11.0563 20.634 11.5727C20.634 12.3239 20.3758 12.9577 19.8594 13.4037C19.343 13.8732 18.6387 14.108 17.7937 14.108C16.9486 14.108 16.2678 13.8732 15.7514 13.4272C15.235 12.9812 14.9768 12.3709 14.9768 11.6432C14.9768 11.1502 15.1176 10.7277 15.3524 10.3756C15.6106 10.0235 15.9627 9.78871 16.4556 9.62439V9.60092ZM17.8406 6.83096C17.4416 6.83096 17.1129 6.94833 16.8782 7.1596C16.6434 7.37087 16.5261 7.65256 16.5261 8.00467C16.5261 8.35678 16.6434 8.63847 16.8782 8.84974C17.1129 9.06101 17.4181 9.17838 17.8171 9.17838C18.1927 9.17838 18.5214 9.08448 18.7326 8.84974C18.9674 8.63847 19.0848 8.35678 19.0848 7.9812C19.0848 7.62908 18.9674 7.34739 18.7326 7.13613C18.4979 6.92486 18.1927 6.80749 17.8171 6.80749L17.8406 6.83096ZM17.8171 10.1173C17.3711 10.1173 17.019 10.2582 16.7373 10.5164C16.4556 10.7746 16.3148 11.1267 16.3148 11.5493C16.3148 12.0188 16.4556 12.3709 16.7373 12.6526C17.019 12.9342 17.3946 13.0516 17.8641 13.0516C18.3336 13.0516 18.6857 12.9342 18.9439 12.676C19.2021 12.4178 19.343 12.0657 19.343 11.5962C19.343 11.1502 19.2021 10.7981 18.9204 10.5399C18.6387 10.2817 18.2632 10.1408 17.8171 10.1408V10.1173ZM24.9768 10.1643V11.385H21.5965V10.1643H24.9768ZM29.8829 5.82157V13.9436H28.4744V8.35678H26.4556V7.39434C27.8641 7.39434 28.6387 6.87791 28.8031 5.82157H29.8594H29.8829ZM35.1411 5.7981C37.019 5.7981 37.958 7.18307 37.958 9.9765C37.958 11.3145 37.7232 12.3474 37.2538 13.0516C36.7843 13.7558 36.1035 14.108 35.188 14.108C33.3101 14.108 32.3711 12.723 32.3711 9.95303C32.3711 8.59153 32.6059 7.55866 33.0754 6.85444C33.5448 6.15021 34.2256 5.7981 35.1411 5.7981ZM35.1646 6.90138C34.9298 6.90138 34.742 6.94833 34.5542 7.04223C34.3899 7.13613 34.2491 7.2535 34.1552 7.44129C34.0613 7.62908 33.9674 7.7934 33.897 7.9812C33.8265 8.16899 33.7796 8.38026 33.7561 8.66195C33.7326 8.94364 33.7092 9.17838 33.7092 9.3427C33.7092 9.53049 33.7092 9.74176 33.7092 10.0234C33.7092 11.0563 33.8265 11.8075 34.0613 12.277C34.296 12.7465 34.6716 12.9812 35.188 12.9812C35.3993 12.9812 35.5636 12.9342 35.7279 12.8638C35.8923 12.7934 36.0096 12.676 36.1035 12.5587C36.1974 12.4413 36.2913 12.3004 36.3617 12.0892C36.4322 11.9014 36.4791 11.7136 36.5261 11.5727C36.5495 11.4084 36.5965 11.2206 36.5965 10.9859C36.62 10.7511 36.62 10.5634 36.62 10.446C36.62 10.3286 36.62 10.1643 36.62 9.95303C36.62 9.69481 36.62 9.48354 36.62 9.3427C36.62 9.20185 36.5965 8.99059 36.573 8.68542C36.5495 8.40373 36.5026 8.16899 36.4322 7.9812C36.3617 7.7934 36.2913 7.62908 36.174 7.41782C36.0801 7.23002 35.9392 7.08918 35.7514 6.99528C35.5636 6.90138 35.3758 6.85444 35.1176 6.85444L35.1646 6.90138ZM17.5355 26.385V27.277C18.0519 26.5727 18.7092 26.2206 19.4838 26.2206C19.8829 26.2206 20.2585 26.3145 20.5636 26.5023C20.8688 26.6901 21.0801 26.9483 21.2444 27.277C21.7373 26.5727 22.4181 26.2206 23.2632 26.2206C23.85 26.2206 24.343 26.385 24.7186 26.7371C25.0941 27.0892 25.3054 27.5821 25.3054 28.1925V32.6056H23.9204V28.7793C23.9204 28.3333 23.85 27.9812 23.6857 27.7465C23.5214 27.4882 23.2397 27.3709 22.7937 27.3709C22.3477 27.3709 22.019 27.5117 21.7843 27.7934C21.5495 28.0751 21.4322 28.4507 21.4322 28.9671V32.6291H20.0472V28.7324C20.0472 28.2864 19.9768 27.9577 19.8594 27.723C19.7186 27.4882 19.4603 27.3943 19.0378 27.3943C18.5683 27.3943 18.2162 27.5352 17.9815 27.8404C17.7467 28.1455 17.6294 28.5446 17.6294 29.0375V32.6291H16.2444V26.385H17.5589H17.5355ZM29.0613 26.385V27.277C29.5777 26.5727 30.235 26.2206 31.0096 26.2206C31.4087 26.2206 31.7843 26.3145 32.0894 26.5023C32.3946 26.6901 32.6059 26.9483 32.7702 27.277C33.2632 26.5727 33.9439 26.2206 34.789 26.2206C35.3758 26.2206 35.8688 26.385 36.2444 26.7371C36.62 27.0892 36.8312 27.5821 36.8312 28.1925V32.6056H35.4463V28.7793C35.4463 28.3333 35.3758 27.9812 35.2115 27.7465C35.0472 27.4882 34.7655 27.3709 34.3195 27.3709C33.8735 27.3709 33.5448 27.5117 33.3101 27.7934C33.0754 28.0751 32.958 28.4507 32.958 28.9671V32.6291H31.573V28.7324C31.573 28.2864 31.5026 27.9577 31.3617 27.723C31.2209 27.4882 30.9627 27.3943 30.5402 27.3943C30.0707 27.3943 29.7186 27.5352 29.4838 27.8404C29.2491 28.1455 29.1317 28.5446 29.1317 29.0375V32.6291H27.7467V26.385H29.0613ZM3.12231 28.9906L7.41808 24.6948L11.7139 28.9906H3.12231ZM3.12231 10.9859L7.41808 15.2817L11.7139 10.9859H3.12231ZM0.0941409 -0.0234985H40.0941V15.9859H0.0941409V-0.0234985Z" fill="#333333"/>
</g>
<defs>
<clipPath id="clip0_298_18943">
<rect width="40.0004" height="40" fill="white"/>
</clipPath>
</defs>
</svg>
