<svg width="26" height="26" viewBox="0 0 26 26" fill="none" xmlns="http://www.w3.org/2000/svg">
    <circle cx="13" cy="13" r="12.5" stroke="#E61801"/>
    <path d="M13.7734 7.36364L13.6598 15.7273H12.3416L12.228 7.36364H13.7734ZM13.0007 19.0909C12.7204 19.0909 12.4799 18.9905 12.2791 18.7898C12.0784 18.589 11.978 18.3485 11.978 18.0682C11.978 17.7879 12.0784 17.5473 12.2791 17.3466C12.4799 17.1458 12.7204 17.0455 13.0007 17.0455C13.281 17.0455 13.5215 17.1458 13.7223 17.3466C13.9231 17.5473 14.0234 17.7879 14.0234 18.0682C14.0234 18.2538 13.9761 18.4242 13.8814 18.5795C13.7905 18.7348 13.6674 18.8598 13.5121 18.9545C13.3606 19.0455 13.1901 19.0909 13.0007 19.0909Z" fill="#E61801"/>
</svg>
