<svg width="160" height="160" viewBox="0 0 160 160" fill="none" xmlns="http://www.w3.org/2000/svg">
<path d="M148.714 120.968C155.979 108.783 159.873 94.8842 159.997 80.6976C160.121 66.511 156.47 52.5467 149.418 40.2362C142.366 27.9257 132.168 17.7118 119.868 10.6417C107.568 3.57163 93.6089 -0.100393 79.4221 0.00208778C65.2353 0.104569 51.331 3.97787 39.1345 11.2249C26.938 18.472 16.888 28.8321 10.0149 41.2432C3.14183 53.6543 -0.307178 67.6699 0.0214734 81.8532C0.350125 96.0366 4.44462 109.877 11.8852 121.957L35.0442 107.691C30.1334 99.7191 27.4311 90.5841 27.2142 81.2231C26.9973 71.8621 29.2736 62.6118 33.8099 54.4205C38.3461 46.2292 44.9791 39.3915 53.0288 34.6084C61.0785 29.8254 70.2553 27.269 79.6186 27.2014C88.9819 27.1337 98.1947 29.5573 106.313 34.2235C114.431 38.8898 121.162 45.6309 125.816 53.7559C130.47 61.8808 132.88 71.0973 132.798 80.4604C132.716 89.8236 130.146 98.9966 125.351 107.039L148.714 120.968Z" fill="white"/>
<path d="M14.5255 125.968C21.9294 136.514 31.7709 145.115 43.2129 151.04C54.6549 156.965 67.3588 160.039 80.2438 159.999C93.1289 159.96 105.814 156.809 117.219 150.814C128.625 144.82 138.414 136.159 145.753 125.568L123.397 110.075C118.553 117.065 112.093 122.781 104.565 126.737C97.0371 130.694 88.665 132.774 80.1609 132.8C71.6568 132.825 63.2722 130.797 55.7205 126.886C48.1688 122.976 41.6734 117.299 36.7868 110.339L14.5255 125.968Z" fill="#F7C398"/>
<path d="M62.8572 80L82.1429 50H97.1429L80 80L97.1429 110H82.1429L62.8572 80Z" fill="white"/>
</svg>
