<svg width="140" height="140" viewBox="0 0 140 140" fill="none" xmlns="http://www.w3.org/2000/svg">
<path d="M130.125 105.847C136.482 95.1849 139.889 83.0237 139.997 70.6104C140.106 58.1971 136.911 45.9784 130.741 35.2067C124.57 24.435 115.647 15.4979 104.884 9.31152C94.1218 3.12518 81.9078 -0.0878442 69.4944 0.00182681C57.0809 0.0914978 44.9146 3.48064 34.2427 9.82181C23.5707 16.163 14.777 25.2281 8.76307 36.0878C2.7491 46.9475 -0.268781 59.2112 0.0187892 71.6216C0.306359 84.032 3.88904 96.1427 10.3996 106.712L30.6637 94.2301C26.3668 87.2542 24.0022 79.2611 23.8124 71.0702C23.6226 62.8794 25.6144 54.7854 29.5836 47.6179C33.5528 40.4505 39.3567 34.4676 46.4002 30.2824C53.4437 26.0972 61.4734 23.8604 69.6663 23.8012C77.8591 23.742 85.9204 25.8626 93.0236 29.9456C100.127 34.0286 106.016 39.9271 110.089 47.0364C114.161 54.1457 116.27 62.2101 116.198 70.4029C116.127 78.5956 113.878 86.622 109.682 93.6593L130.125 105.847Z" fill="white"/>
<path d="M12.7098 110.222C19.1882 119.45 27.7995 126.976 37.8113 132.16C47.823 137.345 58.9389 140.034 70.2133 140C81.4877 139.965 92.587 137.208 102.567 131.963C112.547 126.717 121.112 119.139 127.534 109.872L107.973 96.3158C103.734 102.432 98.081 107.434 91.4942 110.895C84.9074 114.357 77.5819 116.177 70.1408 116.2C62.6997 116.223 55.3632 114.447 48.7554 111.026C42.1477 107.604 36.4642 102.637 32.1885 96.5468L12.7098 110.222Z" fill="#EBECF2"/>
</svg>
