<svg width="50" height="50" viewBox="0 0 50 50" fill="none" xmlns="http://www.w3.org/2000/svg">
<path d="M46.4731 37.8026C48.7435 33.9946 49.9604 29.6513 49.999 25.218C50.0377 20.7847 48.8967 16.4208 46.6931 12.5738C44.4894 8.72677 41.3024 5.53495 37.4586 3.32554C33.6149 1.11614 29.2528 -0.0313729 24.8194 0.000652432C20.386 0.0326778 16.0409 1.24309 12.2295 3.50779C8.41812 5.7725 5.27751 9.01003 3.12967 12.8885C0.981823 16.767 -0.0959932 21.1468 0.00671043 25.5791C0.109414 30.0114 1.38894 34.3367 3.71413 38.1115L10.9513 33.6536C9.4167 31.1622 8.57221 28.3075 8.50443 25.3822C8.43664 22.4569 9.148 19.5662 10.5656 17.0064C11.9832 14.4466 14.056 12.3098 16.5715 10.8151C19.087 9.32043 21.9548 8.52157 24.8808 8.50043C27.8068 8.47929 30.6858 9.23665 33.2227 10.6949C35.7596 12.1531 37.863 14.2597 39.3174 16.7987C40.7718 19.3378 41.5249 22.2179 41.4994 25.1439C41.4739 28.0699 40.6707 30.9364 39.1722 33.4497L46.4731 37.8026Z" fill="#F7F7F7"/>
<path d="M4.53906 39.3651C6.85276 42.6606 9.92825 45.3485 13.5039 47.2001C17.0795 49.0517 21.0495 50.0122 25.076 49.9999C29.1026 49.9876 33.0666 49.0029 36.6309 47.1296C40.1952 45.2562 43.2542 42.5497 45.5478 39.2401L38.5615 34.3985C37.0477 36.5828 35.0288 38.3691 32.6763 39.6055C30.3239 40.8419 27.7077 41.4918 25.0501 41.4999C22.3926 41.508 19.7724 40.8741 17.4125 39.6521C15.0526 38.43 13.0228 36.656 11.4957 34.481L4.53906 39.3651Z" fill="#FFEFE2"/>
</svg>
