<svg width="80" height="80" viewBox="0 0 80 80" fill="none" xmlns="http://www.w3.org/2000/svg">
<path d="M61.6522 14.8119C64.3596 14.8119 66.5626 12.6089 66.5626 9.9017C66.5626 7.1945 64.3594 4.99133 61.6522 4.99133H18.3477C15.6404 4.99133 13.4375 7.19436 13.4375 9.90156C13.4375 12.6088 15.6405 14.8118 18.3477 14.8118H18.7287V73.5494H14.1669C13.7637 73.5494 13.4375 73.8756 13.4375 74.2788C13.4375 74.6819 13.7637 75.0081 14.1669 75.0081C22.1485 75.0091 50.6079 75.0084 65.8332 75.0081C66.2364 75.0081 66.5626 74.6819 66.5626 74.2788C66.5626 73.8756 66.2364 73.5494 65.8332 73.5494H61.2712V14.8119H61.6522ZM59.8125 73.5495H20.1874V14.8119H59.8124V73.5495H59.8125ZM18.3477 13.3532C16.4446 13.3532 14.8961 11.8047 14.8961 9.90156C14.8961 7.9984 16.4446 6.45004 18.3477 6.45004H61.6522C63.5554 6.45004 65.1039 7.99854 65.1039 9.9017C65.1039 11.8049 63.5554 13.3534 61.6522 13.3534C51.6437 13.3532 28.587 13.3532 18.3477 13.3532Z" fill="#FF6E00"/>
<path d="M45.4349 43.4496C45.0318 43.4496 44.7056 43.7758 44.7056 44.179C44.7056 44.5821 45.0318 44.9083 45.4349 44.9083H46.2284V55.3778C46.2284 56.7353 47.3324 57.84 48.69 57.84H52.9785C54.336 57.84 55.44 56.7353 55.44 55.3778V44.9083H56.2342C56.6373 44.9083 56.9636 44.5821 56.9636 44.179C56.9636 43.7758 56.6373 43.4496 56.2342 43.4496C52.626 43.4496 49.0313 43.4496 45.4349 43.4496ZM53.9813 55.3777C53.9813 55.9311 53.5311 56.3812 52.9785 56.3812H48.69C48.1373 56.3812 47.6871 55.931 47.6871 55.3777V44.9082H53.9813V55.3777Z" fill="#FF6E00"/>
<path d="M28.3612 40.2544H51.6384C53.7331 40.2544 55.4369 38.5499 55.4369 36.4552V24.4287C55.4369 22.3341 53.7332 20.6303 51.6384 20.6303H28.3612C26.2665 20.6303 24.562 22.3339 24.562 24.4287V36.4552C24.562 38.5499 26.2665 40.2544 28.3612 40.2544ZM26.0207 24.4287C26.0207 23.1388 27.0705 22.089 28.3612 22.089H51.6384C52.9284 22.089 53.9782 23.1388 53.9782 24.4287V36.4552C53.9782 37.7459 52.9284 38.7957 51.6384 38.7957H28.3612C27.0705 38.7957 26.0207 37.7459 26.0207 36.4552V24.4287Z" fill="#FF6E00"/>
<path d="M32.5239 43.4118H30.1513C28.9035 43.4118 27.8877 44.4275 27.8877 45.6761V48.0486C27.8877 49.2972 28.9033 50.3128 30.1513 50.3128H32.5237C33.7724 50.3128 34.788 49.2972 34.788 48.0486V45.6761C34.7881 44.4275 33.7724 43.4118 32.5239 43.4118ZM33.3294 48.0486C33.3294 48.493 32.9683 48.8541 32.5239 48.8541H30.1513C29.7075 48.8541 29.3464 48.493 29.3464 48.0486V45.6761C29.3464 45.2316 29.7075 44.8705 30.1513 44.8705H32.5237C32.9682 44.8705 33.3293 45.2316 33.3293 45.6761V48.0486H33.3294Z" fill="#FF6E00"/>
<path d="M41.1862 43.4118H38.8136C37.5649 43.4118 36.5493 44.4275 36.5493 45.6761V48.0486C36.5493 49.2972 37.5649 50.3128 38.8136 50.3128H41.186C42.4338 50.3128 43.4496 49.2972 43.4496 48.0486V45.6761C43.4497 44.4275 42.434 43.4118 41.1862 43.4118ZM41.991 48.0486C41.991 48.493 41.6299 48.8541 41.1862 48.8541H38.8136C38.3691 48.8541 38.008 48.493 38.008 48.0486V45.6761C38.008 45.2316 38.3691 44.8705 38.8136 44.8705H41.186C41.6298 44.8705 41.9909 45.2316 41.9909 45.6761V48.0486H41.991Z" fill="#FF6E00"/>
<path d="M32.5239 52.1212H30.1513C28.9035 52.1212 27.8877 53.1369 27.8877 54.3855V56.7579C27.8877 58.0066 28.9033 59.0222 30.1513 59.0222H32.5237C33.7724 59.0222 34.788 58.0066 34.788 56.7579V54.3855C34.7881 53.137 33.7724 52.1212 32.5239 52.1212ZM33.3294 56.7581C33.3294 57.2025 32.9683 57.5636 32.5239 57.5636H30.1513C29.7075 57.5636 29.3464 57.2025 29.3464 56.7581V54.3856C29.3464 53.9412 29.7075 53.5801 30.1513 53.5801H32.5237C32.9682 53.5801 33.3293 53.9412 33.3293 54.3856V56.7581H33.3294Z" fill="#FF6E00"/>
<path d="M41.1862 52.1212H38.8136C37.5649 52.1212 36.5493 53.1369 36.5493 54.3855V56.7579C36.5493 58.0066 37.5649 59.0222 38.8136 59.0222H41.186C42.4338 59.0222 43.4496 58.0066 43.4496 56.7579V54.3855C43.4497 53.137 42.434 52.1212 41.1862 52.1212ZM41.991 56.7581C41.991 57.2025 41.6299 57.5636 41.1862 57.5636H38.8136C38.3691 57.5636 38.008 57.2025 38.008 56.7581V54.3856C38.008 53.9412 38.3691 53.5801 38.8136 53.5801H41.186C41.6298 53.5801 41.9909 53.9412 41.9909 54.3856V56.7581H41.991Z" fill="#FF6E00"/>
<path d="M32.5239 60.8308H30.1513C28.9035 60.8308 27.8877 61.8464 27.8877 63.095V65.4676C27.8877 66.7163 28.9033 67.7319 30.1513 67.7319H32.5237C33.7724 67.7319 34.788 66.7163 34.788 65.4676V63.095C34.7881 61.8464 33.7724 60.8308 32.5239 60.8308ZM33.3294 65.4675C33.3294 65.9119 32.9683 66.273 32.5239 66.273H30.1513C29.7075 66.273 29.3464 65.9119 29.3464 65.4675V63.0949C29.3464 62.6504 29.7075 62.2893 30.1513 62.2893H32.5237C32.9682 62.2893 33.3293 62.6504 33.3293 63.0949V65.4675H33.3294Z" fill="#FF6E00"/>
<path d="M41.1862 60.8308H38.8136C37.5649 60.8308 36.5493 61.8464 36.5493 63.095V65.4676C36.5493 66.7163 37.5649 67.7319 38.8136 67.7319H41.186C42.4338 67.7319 43.4496 66.7163 43.4496 65.4676V63.095C43.4497 61.8464 42.434 60.8308 41.1862 60.8308ZM41.991 65.4675C41.991 65.9119 41.6299 66.273 41.1862 66.273H38.8136C38.3691 66.273 38.008 65.9119 38.008 65.4675V63.0949C38.008 62.6504 38.3691 62.2893 38.8136 62.2893H41.186C41.6298 62.2893 41.9909 62.6504 41.9909 63.0949V65.4675H41.991Z" fill="#FF6E00"/>
<path d="M39.6188 35.845C38.6488 35.845 37.8938 35.65 37.3538 35.26C36.8138 34.86 36.5437 34.315 36.5437 33.625C36.5437 33.365 36.5838 33.115 36.6638 32.875C36.7538 32.625 36.9038 32.375 37.1138 32.125H36.6787C36.4988 32.125 36.3538 32.075 36.2438 31.975C36.1438 31.865 36.0938 31.73 36.0938 31.57C36.0938 31.42 36.1487 31.295 36.2587 31.195C36.3787 31.085 36.5388 31.03 36.7388 31.03H38.1037L39.5588 29.8H36.6787C36.4988 29.8 36.3538 29.75 36.2438 29.65C36.1438 29.54 36.0938 29.41 36.0938 29.26C36.0938 29.1 36.1438 28.97 36.2438 28.87C36.3538 28.76 36.4988 28.705 36.6787 28.705H40.7587C41.0487 28.435 41.2438 28.2 41.3438 28C41.4538 27.79 41.5088 27.56 41.5088 27.31C41.5088 26.62 40.9688 26.275 39.8888 26.275C39.1388 26.275 38.4138 26.5 37.7138 26.95C37.5238 27.06 37.3538 27.09 37.2038 27.04C37.0538 26.99 36.9388 26.9 36.8588 26.77C36.7788 26.63 36.7537 26.485 36.7837 26.335C36.8137 26.175 36.9087 26.04 37.0688 25.93C37.5288 25.62 38.0388 25.39 38.5988 25.24C39.1588 25.08 39.7388 25 40.3388 25C41.2188 25 41.8988 25.175 42.3788 25.525C42.8588 25.865 43.0988 26.355 43.0988 26.995C43.0988 27.305 43.0438 27.595 42.9338 27.865C42.8238 28.135 42.6388 28.415 42.3788 28.705H42.8438C43.0138 28.705 43.1538 28.76 43.2638 28.87C43.3738 28.97 43.4288 29.1 43.4288 29.26C43.4288 29.41 43.3738 29.54 43.2638 29.65C43.1538 29.75 43.0138 29.8 42.8438 29.8H41.2688L39.8438 31.03H42.8438C43.0138 31.03 43.1538 31.085 43.2638 31.195C43.3738 31.295 43.4288 31.42 43.4288 31.57C43.4288 31.73 43.3738 31.865 43.2638 31.975C43.1538 32.075 43.0138 32.125 42.8438 32.125H38.6738C38.2938 32.515 38.1037 32.94 38.1037 33.4C38.1037 33.76 38.2638 34.045 38.5838 34.255C38.9038 34.455 39.3688 34.555 39.9787 34.555C40.3987 34.555 40.8038 34.495 41.1938 34.375C41.5938 34.255 41.9788 34.065 42.3488 33.805C42.5388 33.675 42.7088 33.635 42.8588 33.685C43.0088 33.725 43.1188 33.815 43.1888 33.955C43.2688 34.095 43.2988 34.245 43.2788 34.405C43.2688 34.565 43.1888 34.7 43.0388 34.81C42.6588 35.11 42.1688 35.36 41.5688 35.56C40.9788 35.75 40.3288 35.845 39.6188 35.845Z" fill="#FF6E00"/>
<path d="M12.0073 29.2308C11.37 29.2308 10.8534 29.7474 10.8534 30.3846C10.8534 31.0219 11.37 31.5385 12.0073 31.5385C12.6445 31.5385 13.1611 31.0219 13.1611 30.3846C13.1611 29.7474 12.6445 29.2308 12.0073 29.2308Z" fill="#F7C398"/>
<path d="M6.62252 10C5.98527 10 5.46867 10.5166 5.46867 11.1538C5.46867 11.7911 5.98527 12.3077 6.62252 12.3077C7.25977 12.3077 7.77637 11.7911 7.77637 11.1538C7.77637 10.5166 7.25977 10 6.62252 10Z" fill="#F7C398"/>
<path d="M8.93014 64.6154C8.29289 64.6154 7.77629 64.0988 7.77629 63.4615C7.77629 62.8243 8.29289 62.3077 8.93014 62.3077C9.56739 62.3077 10.084 62.8243 10.084 63.4615C10.084 64.0988 9.56739 64.6154 8.93014 64.6154Z" fill="#F7C398"/>
<path d="M12.007 44.6154C14.3399 44.6154 16.2378 46.5134 16.2378 48.8462C16.2378 51.1789 14.3399 53.0769 12.007 53.0769C9.6741 53.0769 7.77625 51.1789 7.77625 48.8462C7.77625 46.5134 9.6741 44.6154 12.007 44.6154ZM12.007 51.5385C13.4915 51.5385 14.6993 50.3306 14.6993 48.8462C14.6993 47.3617 13.4915 46.1538 12.007 46.1538C10.5226 46.1538 9.31472 47.3617 9.31472 48.8462C9.31472 50.3306 10.5226 51.5385 12.007 51.5385Z" fill="#F7C398"/>
<path d="M68.3775 67.6923C69.0147 67.6923 69.5313 67.1757 69.5313 66.5385C69.5313 65.9012 69.0147 65.3846 68.3775 65.3846C67.7402 65.3846 67.2236 65.9012 67.2236 66.5385C67.2236 67.1757 67.7402 67.6923 68.3775 67.6923Z" fill="#F7C398"/>
<path d="M72.6079 9.23077C73.2452 9.23077 73.7618 8.71418 73.7618 8.07693C73.7618 7.43967 73.2452 6.92308 72.6079 6.92308C71.9707 6.92308 71.4541 7.43967 71.4541 8.07693C71.4541 8.71418 71.9707 9.23077 72.6079 9.23077Z" fill="#F7C398"/>
<path d="M66.0699 26.9231C66.7071 26.9231 67.2237 26.4065 67.2237 25.7692C67.2237 25.132 66.7071 24.6154 66.0699 24.6154C65.4326 24.6154 64.916 25.132 64.916 25.7692C64.916 26.4065 65.4326 26.9231 66.0699 26.9231Z" fill="#F7C398"/>
<path d="M69.9159 35.3846C66.9468 35.3846 64.5312 37.8002 64.5312 40.7692C64.5312 43.7383 66.9468 46.1538 69.9159 46.1538C72.8849 46.1538 75.3005 43.7383 75.3005 40.7692C75.3005 37.8002 72.8849 35.3846 69.9159 35.3846ZM69.9159 44.6154C67.7951 44.6154 66.0697 42.89 66.0697 40.7692C66.0697 38.6485 67.7951 36.9231 69.9159 36.9231C72.0366 36.9231 73.762 38.6485 73.762 40.7692C73.762 42.89 72.0366 44.6154 69.9159 44.6154Z" fill="#F7C398"/>
</svg>
