<svg width="80" height="80" viewBox="0 0 80 80" fill="none" xmlns="http://www.w3.org/2000/svg">
<path d="M46.5381 59.6154C46.5381 55.1618 42.9147 51.5385 38.4612 51.5385C34.0075 51.5385 30.3843 55.1618 30.3843 59.6154C30.3843 64.0689 34.0075 67.6923 38.4612 67.6923C42.9147 67.6923 46.5381 64.0689 46.5381 59.6154ZM31.9227 59.6154C31.9227 56.01 34.8558 53.0769 38.4612 53.0769C42.0666 53.0769 44.9997 56.01 44.9997 59.6154C44.9997 63.2208 42.0666 66.1538 38.4612 66.1538C34.8558 66.1538 31.9227 63.2208 31.9227 59.6154Z" fill="#FF6E00"/>
<path d="M38.4615 49.9999C38.8862 49.9999 39.2307 49.6556 39.2307 49.2307C39.2307 48.8058 38.8862 48.4615 38.4615 48.4615C32.3112 48.4615 27.3076 53.465 27.3076 59.6153C27.3076 60.0403 27.6521 60.3846 28.0768 60.3846C28.5016 60.3846 28.8461 60.0403 28.8461 59.6153C28.8461 54.3133 33.1596 49.9999 38.4615 49.9999Z" fill="#FF6E00"/>
<path d="M48.8462 58.8461C48.4213 58.8461 48.077 59.1904 48.077 59.6154C48.077 64.9174 43.7636 69.2307 38.4616 69.2307C38.0368 69.2307 37.6924 69.5751 37.6924 70C37.6924 70.4249 38.0368 70.7692 38.4616 70.7692C44.6119 70.7692 49.6155 65.7657 49.6155 59.6154C49.6155 59.1904 49.2712 58.8461 48.8462 58.8461Z" fill="#FF6E00"/>
<path d="M64.6153 4.61536H24.6153C24.1905 4.61536 23.846 4.95982 23.846 5.38459V10.7692H18.4614C18.0367 10.7692 17.6922 11.1137 17.6922 11.5384V38.4615H9.23066C8.80589 38.4615 8.46143 38.806 8.46143 39.2307V70C8.46143 72.969 10.877 75.3846 13.846 75.3846H52.7691C56.332 75.3846 59.2307 72.486 59.2307 68.923V63.0769H64.6153C65.0402 63.0769 65.3845 62.7326 65.3845 62.3077V5.38459C65.3845 4.95982 65.0402 4.61536 64.6153 4.61536ZM9.99989 70V40H17.6922V70C17.6922 72.1207 15.9668 73.8461 13.846 73.8461C11.7253 73.8461 9.99989 72.1207 9.99989 70ZM57.6922 68.923C57.6922 71.6377 55.4837 73.8461 52.7691 73.8461H17.6093C18.6088 72.8681 19.2307 71.5055 19.2307 70C19.2307 68.4117 19.2307 13.7255 19.2307 12.3077H57.6922V68.923ZM63.846 61.5384H59.2307V11.5384C59.2307 11.1137 58.8863 10.7692 58.4614 10.7692H25.3845V6.15382H63.846V61.5384Z" fill="#FF6E00"/>
<path d="M54.615 14.6154H22.3073C21.8825 14.6154 21.5381 14.9598 21.5381 15.3846V26.923C21.5381 27.3478 21.8825 27.6923 22.3073 27.6923H54.615C55.0399 27.6923 55.3842 27.3478 55.3842 26.923V15.3846C55.3842 14.9598 55.0399 14.6154 54.615 14.6154ZM53.8458 26.1538H23.0765V16.1538H53.8458V26.1538Z" fill="#FF6E00"/>
<path d="M54.615 29.2307H22.3073C21.8825 29.2307 21.5381 29.5752 21.5381 29.9999C21.5381 30.4247 21.8825 30.7692 22.3073 30.7692H54.615C55.0399 30.7692 55.3842 30.4247 55.3842 29.9999C55.3842 29.5752 55.0399 29.2307 54.615 29.2307Z" fill="#FF6E00"/>
<path d="M54.615 32.3077H22.3073C21.8825 32.3077 21.5381 32.6521 21.5381 33.0769C21.5381 33.5017 21.8825 33.8461 22.3073 33.8461H54.615C55.0399 33.8461 55.3842 33.5017 55.3842 33.0769C55.3842 32.6521 55.0399 32.3077 54.615 32.3077Z" fill="#FF6E00"/>
<path d="M54.615 35.3846H22.3073C21.8825 35.3846 21.5381 35.729 21.5381 36.1538C21.5381 36.5786 21.8825 36.923 22.3073 36.923H54.615C55.0399 36.923 55.3842 36.5786 55.3842 36.1538C55.3842 35.729 55.0399 35.3846 54.615 35.3846Z" fill="#FF6E00"/>
<path d="M54.615 38.4615H22.3073C21.8825 38.4615 21.5381 38.8059 21.5381 39.2307C21.5381 39.6556 21.8825 39.9999 22.3073 39.9999H54.615C55.0399 39.9999 55.3842 39.6556 55.3842 39.2307C55.3842 38.8059 55.0399 38.4615 54.615 38.4615Z" fill="#FF6E00"/>
<path d="M54.615 41.5385H22.3073C21.8825 41.5385 21.5381 41.8828 21.5381 42.3077C21.5381 42.7326 21.8825 43.0769 22.3073 43.0769H54.615C55.0399 43.0769 55.3842 42.7326 55.3842 42.3077C55.3842 41.8828 55.0399 41.5385 54.615 41.5385Z" fill="#FF6E00"/>
<path d="M54.615 44.6154H22.3073C21.8825 44.6154 21.5381 44.9597 21.5381 45.3846C21.5381 45.8095 21.8825 46.1538 22.3073 46.1538H54.615C55.0399 46.1538 55.3842 45.8095 55.3842 45.3846C55.3842 44.9597 55.0399 44.6154 54.615 44.6154Z" fill="#FF6E00"/>
<path d="M15.3845 18.4615C15.3845 15.4924 12.9689 13.0769 9.99985 13.0769C7.03077 13.0769 4.61523 15.4924 4.61523 18.4615C4.61523 21.4306 7.03077 23.8461 9.99985 23.8461C12.9689 23.8461 15.3845 21.4306 15.3845 18.4615ZM6.1537 18.4615C6.1537 16.3408 7.87908 14.6154 9.99985 14.6154C12.1206 14.6154 13.846 16.3408 13.846 18.4615C13.846 20.5823 12.1206 22.3077 9.99985 22.3077C7.87908 22.3077 6.1537 20.5823 6.1537 18.4615Z" fill="#F7C398"/>
<path d="M70.769 63.0769C68.6482 63.0769 66.9229 64.8023 66.9229 66.9231C66.9229 69.0438 68.6482 70.7692 70.769 70.7692C72.8898 70.7692 74.6152 69.0438 74.6152 66.9231C74.6152 64.8023 72.8898 63.0769 70.769 63.0769ZM70.769 69.2308C69.4964 69.2308 68.4613 68.1957 68.4613 66.9231C68.4613 65.6504 69.4964 64.6154 70.769 64.6154C72.0415 64.6154 73.0767 65.6504 73.0767 66.9231C73.0767 68.1957 72.0415 69.2308 70.769 69.2308Z" fill="#F7C398"/>
<path d="M73.4615 15.3846C74.0987 15.3846 74.6153 14.868 74.6153 14.2308C74.6153 13.5935 74.0987 13.0769 73.4615 13.0769C72.8242 13.0769 72.3076 13.5935 72.3076 14.2308C72.3076 14.868 72.8242 15.3846 73.4615 15.3846Z" fill="#F7C398"/>
<path d="M68.8462 40C69.4835 40 70.0001 39.4834 70.0001 38.8461C70.0001 38.2089 69.4835 37.6923 68.8462 37.6923C68.209 37.6923 67.6924 38.2089 67.6924 38.8461C67.6924 39.4834 68.209 40 68.8462 40Z" fill="#F7C398"/>
<path d="M64.2305 72.3076C64.8678 72.3076 65.3844 71.791 65.3844 71.1538C65.3844 70.5165 64.8678 69.9999 64.2305 69.9999C63.5933 69.9999 63.0767 70.5165 63.0767 71.1538C63.0767 71.791 63.5933 72.3076 64.2305 72.3076Z" fill="#F7C398"/>
<path d="M11.9229 9.23073C12.5601 9.23073 13.0767 8.71413 13.0767 8.07688C13.0767 7.43963 12.5601 6.92303 11.9229 6.92303C11.2856 6.92303 10.769 7.43963 10.769 8.07688C10.769 8.71413 11.2856 9.23073 11.9229 9.23073Z" fill="#F7C398"/>
<path d="M10.3843 32.3076C11.0216 32.3076 11.5382 31.791 11.5382 31.1538C11.5382 30.5165 11.0216 29.9999 10.3843 29.9999C9.74706 29.9999 9.23047 30.5165 9.23047 31.1538C9.23047 31.791 9.74706 32.3076 10.3843 32.3076Z" fill="#F7C398"/>
<path d="M38.4138 63.9219C37.6221 63.9219 37.0046 63.7635 36.5613 63.4469C36.1258 63.1302 35.9081 62.6948 35.9081 62.1406C35.9081 61.9665 35.9358 61.7923 35.9913 61.6181C36.0467 61.436 36.1377 61.25 36.2644 61.06H36.0269C35.8606 61.06 35.726 61.0125 35.6231 60.9175C35.5202 60.8146 35.4688 60.6879 35.4688 60.5375C35.4688 60.3871 35.5242 60.2644 35.635 60.1694C35.7458 60.0665 35.9002 60.015 36.0981 60.015H37.1431L38.0694 59.2075H36.0269C35.8606 59.2075 35.726 59.16 35.6231 59.065C35.5202 58.9621 35.4688 58.8354 35.4688 58.685C35.4688 58.5346 35.5202 58.4119 35.6231 58.3169C35.726 58.214 35.8606 58.1625 36.0269 58.1625H39.1619C39.3281 57.9962 39.439 57.8458 39.4944 57.7113C39.5577 57.5767 39.5894 57.4263 39.5894 57.26C39.5894 56.785 39.2094 56.5475 38.4494 56.5475C37.9585 56.5475 37.4519 56.69 36.9294 56.975C36.7473 57.07 36.585 57.0938 36.4425 57.0463C36.3079 56.9908 36.209 56.8998 36.1456 56.7731C36.0823 56.6385 36.0625 56.5 36.0863 56.3575C36.1179 56.2071 36.209 56.0844 36.3594 55.9894C36.7235 55.7677 37.1273 55.6015 37.5706 55.4906C38.014 55.3719 38.4652 55.3125 38.9244 55.3125C39.6448 55.3125 40.195 55.451 40.575 55.7281C40.9629 56.0052 41.1569 56.405 41.1569 56.9275C41.1569 57.1492 41.1213 57.359 41.05 57.5569C40.9867 57.7548 40.8719 57.9567 40.7056 58.1625H40.9194C41.0777 58.1625 41.2083 58.214 41.3113 58.3169C41.4221 58.4119 41.4775 58.5346 41.4775 58.685C41.4775 58.8354 41.4221 58.9621 41.3113 59.065C41.2083 59.16 41.0777 59.2075 40.9194 59.2075H39.6844L38.7938 60.015H40.9194C41.0777 60.015 41.2083 60.0665 41.3113 60.1694C41.4221 60.2644 41.4775 60.3871 41.4775 60.5375C41.4775 60.6879 41.4221 60.8146 41.3113 60.9175C41.2083 61.0125 41.0777 61.06 40.9194 61.06H37.7369C37.5469 61.3054 37.4519 61.5706 37.4519 61.8556C37.4519 62.101 37.5627 62.299 37.7844 62.4494C38.014 62.5998 38.3465 62.675 38.7819 62.675C39.0748 62.675 39.3598 62.6354 39.6369 62.5563C39.9219 62.4771 40.2029 62.3504 40.48 62.1763C40.6542 62.0654 40.8085 62.0377 40.9431 62.0931C41.0777 62.1406 41.1806 62.2317 41.2519 62.3663C41.3231 62.5008 41.3469 62.6473 41.3231 62.8056C41.3073 62.956 41.2281 63.0827 41.0856 63.1856C40.769 63.4073 40.381 63.5854 39.9219 63.72C39.4706 63.8546 38.9679 63.9219 38.4138 63.9219Z" fill="#FF6E00"/>
</svg>
