<svg width="80" height="80" viewBox="0 0 80 80" fill="none" xmlns="http://www.w3.org/2000/svg">
<path d="M71.5371 40.7812C72.1843 40.7812 72.709 40.2566 72.709 39.6094C72.709 38.9622 72.1843 38.4375 71.5371 38.4375C70.8899 38.4375 70.3652 38.9622 70.3652 39.6094C70.3652 40.2566 70.8899 40.7812 71.5371 40.7812Z" fill="#F7C398"/>
<path d="M67.6309 55.625C68.2781 55.625 68.8027 55.1003 68.8027 54.4531C68.8027 53.8059 68.2781 53.2812 67.6309 53.2812C66.9837 53.2812 66.459 53.8059 66.459 54.4531C66.459 55.1003 66.9837 55.625 67.6309 55.625Z" fill="#F7C398"/>
<path d="M56.6934 11.0938C57.3406 11.0938 57.8652 10.5691 57.8652 9.92188C57.8652 9.27467 57.3406 8.75 56.6934 8.75C56.0462 8.75 55.5215 9.27467 55.5215 9.92188C55.5215 10.5691 56.0462 11.0938 56.6934 11.0938Z" fill="#F7C398"/>
<path d="M20.7559 7.96875C21.4031 7.96875 21.9277 7.44408 21.9277 6.79688C21.9277 6.14967 21.4031 5.625 20.7559 5.625C20.1087 5.625 19.584 6.14967 19.584 6.79688C19.584 7.44408 20.1087 7.96875 20.7559 7.96875Z" fill="#F7C398"/>
<path d="M11.3809 42.3438C12.0281 42.3438 12.5527 41.8191 12.5527 41.1719C12.5527 40.5247 12.0281 40 11.3809 40C10.7337 40 10.209 40.5247 10.209 41.1719C10.209 41.8191 10.7337 42.3438 11.3809 42.3438Z" fill="#F7C398"/>
<path d="M9.81836 18.9062C10.4656 18.9062 10.9902 18.3816 10.9902 17.7344C10.9902 17.0872 10.4656 16.5625 9.81836 16.5625C9.17115 16.5625 8.64648 17.0872 8.64648 17.7344C8.64648 18.3816 9.17115 18.9062 9.81836 18.9062Z" fill="#F7C398"/>
<path d="M75.2485 27.6123L40.3 6.51857C40.0516 6.36873 39.741 6.36873 39.4925 6.51857L4.5441 27.6123C4.24378 27.7936 4.10113 28.1528 4.19519 28.4908C4.28925 28.8287 4.59706 29.0625 4.94785 29.0625H10.7355L9.45753 33.5353C9.31519 34.0334 9.68941 34.5312 10.2088 34.5312H15.6775V37.6562C15.6775 38.0876 16.0272 38.4375 16.4588 38.4375H18.0213V61.875H11.7713C11.3397 61.875 10.99 62.2247 10.99 62.6562V67.3437H7.86503C7.43347 67.3437 7.08378 67.6934 7.08378 68.125V72.8125H5.52128C5.08972 72.8125 4.74003 73.1622 4.74003 73.5937C4.74003 74.0253 5.08972 74.375 5.52128 74.375H73.49C73.9216 74.375 74.2713 74.0253 74.2713 73.5937C74.2713 73.1622 73.9216 72.8125 73.49 72.8125H71.9275V68.125C71.9275 67.6934 71.5779 67.3437 71.1463 67.3437H68.0213V62.6562C68.0213 62.2247 67.6716 61.875 67.24 61.875H61.7713C61.7713 57.2028 61.7713 44.8984 61.7713 38.4375H63.3338C63.7654 38.4375 64.115 38.0876 64.115 37.6562V34.5312H68.8025C69.3205 34.5312 69.6963 34.0347 69.5538 33.5353L68.2757 29.0625H74.8447C75.1955 29.0625 75.5033 28.8287 75.5972 28.4908C75.6915 28.1528 75.5488 27.7936 75.2485 27.6123ZM17.24 34.5312H28.1775V36.875H17.24V34.5312ZM28.9588 38.4375C29.3902 38.4375 29.74 38.0876 29.74 37.6562V34.5312H32.865V37.6562C32.865 38.0876 33.2147 38.4375 33.6463 38.4375H35.2088V61.875H27.3963C27.3963 59.4478 27.3963 41.4329 27.3963 38.4375H28.9588ZM46.1463 38.4375C46.578 38.4375 46.9275 38.0876 46.9275 37.6562V34.5312H50.0525V37.6562C50.0525 38.0876 50.4022 38.4375 50.8338 38.4375H52.3963V61.875H44.5838C44.5838 59.4478 44.5838 41.4329 44.5838 38.4375H46.1463ZM60.2088 61.875H53.9588V59.279L60.2088 56.779V61.875ZM60.2088 55.0959L53.9588 57.5959V55.3726L60.2088 52.8726V55.0959ZM43.0213 38.4375V51.1897L36.7713 53.6897V38.4375H43.0213ZM36.7713 55.3728L43.0213 52.8728V55.0961L36.7713 57.5961V55.3728ZM36.7713 59.279L43.0213 56.779V61.875H36.7713V59.279ZM45.365 36.875H34.4275V34.5312H45.365V36.875ZM25.8338 55.0959L19.5838 57.5959V55.3726L25.8338 52.8726V55.0959ZM19.5838 59.279L25.8338 56.779V61.875H19.5838V59.279ZM25.8338 38.4375V51.1897L19.5838 53.6897V38.4375H25.8338ZM70.365 72.8125H8.64628V68.9062H70.365V72.8125ZM66.4588 67.3437H12.5525V63.4375H66.4588V67.3437ZM60.2088 51.1897L53.9588 53.6897V38.4375H60.2088V51.1897ZM62.5525 36.875H51.615V34.5312H62.5525V36.875ZM67.7668 32.9687C60.9986 32.9687 17.7505 32.9687 11.2444 32.9687L12.3607 29.0625H66.651L67.7668 32.9687ZM45.0708 27.5C48.1968 25.4178 49.7671 21.6831 49.0718 17.9809C48.9921 17.5569 48.5839 17.2775 48.1597 17.3572C47.7357 17.4367 47.4564 17.8451 47.5361 18.2692C48.4329 23.0479 44.8111 27.4923 39.8963 27.4923C34.9764 27.4923 31.3605 23.0425 32.2561 18.2692C32.3358 17.8451 32.0566 17.4369 31.6325 17.3572C31.2082 17.2775 30.8 17.5569 30.7205 17.9809C30.025 21.687 31.5989 25.4201 34.7214 27.5H7.7541L39.8963 8.09998L72.0385 27.5H45.0708Z" fill="#FF6E00"/>
<path d="M71.1465 15.7812C73.7312 15.7812 75.834 13.6784 75.834 11.0938C75.834 8.50906 73.7312 6.40625 71.1465 6.40625C68.5618 6.40625 66.459 8.50906 66.459 11.0938C66.459 13.6784 68.5618 15.7812 71.1465 15.7812ZM71.1465 7.96875C72.8696 7.96875 74.2715 9.37063 74.2715 11.0938C74.2715 12.8169 72.8696 14.2188 71.1465 14.2188C69.4234 14.2188 68.0215 12.8169 68.0215 11.0938C68.0215 9.37063 69.4234 7.96875 71.1465 7.96875Z" fill="#F7C398"/>
<path d="M4.74023 52.5C4.74023 54.6539 6.49258 56.4062 8.64648 56.4062C10.8004 56.4062 12.5527 54.6539 12.5527 52.5C12.5527 50.3461 10.8004 48.5938 8.64648 48.5938C6.49258 48.5938 4.74023 50.3461 4.74023 52.5ZM10.9902 52.5C10.9902 53.7923 9.93867 54.8438 8.64648 54.8438C7.35398 54.8438 6.30273 53.7923 6.30273 52.5C6.30273 51.2077 7.35398 50.1562 8.64648 50.1562C9.93883 50.1562 10.9902 51.2077 10.9902 52.5Z" fill="#F7C398"/>
<path d="M39.8031 23.7081C38.9544 23.7081 38.2938 23.5375 37.8213 23.1963C37.3488 22.8463 37.1125 22.3694 37.1125 21.7656C37.1125 21.5381 37.1475 21.3194 37.2175 21.1094C37.2962 20.8906 37.4275 20.6719 37.6113 20.4531H37.2306C37.0731 20.4531 36.9463 20.4094 36.85 20.3219C36.7625 20.2256 36.7188 20.1075 36.7188 19.9675C36.7188 19.8363 36.7669 19.7269 36.8631 19.6394C36.9681 19.5431 37.1081 19.495 37.2831 19.495H38.4775L39.7506 18.4188H37.2306C37.0731 18.4188 36.9463 18.375 36.85 18.2875C36.7625 18.1913 36.7188 18.0775 36.7188 17.9463C36.7188 17.8063 36.7625 17.6925 36.85 17.605C36.9463 17.5088 37.0731 17.4606 37.2306 17.4606H40.8006C41.0544 17.2244 41.225 17.0188 41.3125 16.8438C41.4088 16.66 41.4569 16.4588 41.4569 16.24C41.4569 15.6363 40.9844 15.3344 40.0394 15.3344C39.3831 15.3344 38.7488 15.5313 38.1363 15.925C37.97 16.0213 37.8212 16.0475 37.69 16.0038C37.5588 15.96 37.4581 15.8813 37.3881 15.7675C37.3181 15.645 37.2962 15.5181 37.3225 15.3869C37.3487 15.2469 37.4319 15.1288 37.5719 15.0325C37.9744 14.7613 38.4206 14.56 38.9106 14.4288C39.4006 14.2887 39.9081 14.2188 40.4331 14.2188C41.2031 14.2188 41.7981 14.3719 42.2181 14.6781C42.6381 14.9756 42.8481 15.4044 42.8481 15.9644C42.8481 16.2356 42.8 16.4894 42.7038 16.7256C42.6075 16.9619 42.4456 17.2069 42.2181 17.4606H42.625C42.7737 17.4606 42.8963 17.5088 42.9925 17.605C43.0888 17.6925 43.1369 17.8063 43.1369 17.9463C43.1369 18.0775 43.0888 18.1913 42.9925 18.2875C42.8963 18.375 42.7737 18.4188 42.625 18.4188H41.2469L40 19.495H42.625C42.7737 19.495 42.8963 19.5431 42.9925 19.6394C43.0888 19.7269 43.1369 19.8363 43.1369 19.9675C43.1369 20.1075 43.0888 20.2256 42.9925 20.3219C42.8963 20.4094 42.7737 20.4531 42.625 20.4531H38.9762C38.6437 20.7944 38.4775 21.1663 38.4775 21.5688C38.4775 21.8837 38.6175 22.1331 38.8975 22.3169C39.1775 22.4919 39.5844 22.5794 40.1181 22.5794C40.4856 22.5794 40.84 22.5269 41.1813 22.4219C41.5312 22.3169 41.8681 22.1506 42.1919 21.9231C42.3581 21.8094 42.5069 21.7744 42.6381 21.8181C42.7694 21.8531 42.8656 21.9319 42.9269 22.0544C42.9969 22.1769 43.0231 22.3081 43.0056 22.4481C42.9969 22.5881 42.9269 22.7063 42.7956 22.8025C42.4631 23.065 42.0344 23.2838 41.5094 23.4588C40.9931 23.625 40.4244 23.7081 39.8031 23.7081Z" fill="#FF6E00"/>
</svg>
