<svg width="20" height="20" viewBox="0 0 20 20" fill="none" xmlns="http://www.w3.org/2000/svg">
<path d="M3.08083 13.7837C2.91458 13.7125 2.72167 13.7566 2.60292 13.8925C2.48375 14.0291 2.46667 14.2258 2.55958 14.3808C3.94583 16.6916 7.50958 17.5445 10.1862 16.2058C12.6767 14.9604 14.1796 14.2087 16.9192 15.3825C17.0854 15.4537 17.2783 15.4095 17.3971 15.2737C17.5162 15.137 17.5333 14.9404 17.4404 14.7854C16.0542 12.4754 12.4904 11.6225 9.8125 12.9608C7.3225 14.2058 5.81958 14.9575 3.08083 13.7837ZM3.08083 9.20037C2.91458 9.12912 2.72167 9.17328 2.60292 9.30912C2.48375 9.44578 2.46667 9.64245 2.55958 9.79745C3.94583 12.1079 7.51 12.9608 10.1867 11.6225C12.6771 10.377 14.18 9.62537 16.9196 10.7991C17.0858 10.8704 17.2788 10.8262 17.3975 10.6904C17.5167 10.5537 17.5338 10.357 17.4408 10.202C16.0546 7.89204 12.4908 7.03912 9.81292 8.37745C7.3225 9.62245 5.81958 10.3741 3.08083 9.20037ZM9.81292 3.79412C7.3225 5.03912 5.81958 5.79079 3.08083 4.61704C2.91458 4.54579 2.72167 4.58995 2.60292 4.72578C2.48375 4.86245 2.46667 5.05912 2.55958 5.21412C3.94583 7.52454 7.51 8.37745 10.1867 7.03912C12.6771 5.7937 14.18 5.04204 16.9196 6.21579C17.0858 6.28703 17.2788 6.24287 17.3975 6.10704C17.5167 5.97037 17.5338 5.7737 17.4408 5.6187C16.0546 3.3087 12.4904 2.45578 9.81292 3.79412Z" fill="white"/>
</svg>
