<svg width="16" height="16" viewBox="0 0 16 16" fill="none" xmlns="http://www.w3.org/2000/svg">
<g clip-path="url(#clip0_71_1422)">
<path d="M6.2968 16C6.23455 16 6.17155 15.9876 6.11136 15.9616C5.9007 15.8708 5.78677 15.6408 5.84208 15.4182L7.4272 9.03762H3.15628C3.00168 9.03762 2.85703 8.9614 2.76962 8.83387C2.68222 8.70634 2.66331 8.54393 2.71909 8.39975L5.85227 0.299655C5.92211 0.119062 6.0958 0 6.28942 0H10.6007C10.7591 0 10.9068 0.0799997 10.9933 0.212687C11.0798 0.345374 11.0935 0.512779 11.0297 0.657747L9.17438 4.86898H12.8437C13.0152 4.86898 13.1729 4.96257 13.2551 5.11304C13.3373 5.26348 13.3308 5.44679 13.2381 5.59104L6.69142 15.7845C6.60289 15.9224 6.45233 16 6.2968 16Z" fill="white"/>
</g>
<defs>
<clipPath id="clip0_71_1422">
<rect width="16" height="16" fill="white"/>
</clipPath>
</defs>
</svg>
