<svg width="20" height="20" viewBox="0 0 20 20" fill="none" xmlns="http://www.w3.org/2000/svg">
<g clip-path="url(#clip0_71_1466)">
<path d="M6.22177 15.8394L3.2431 16.7567L4.15999 13.7781C4.38221 14.2203 4.67155 14.6207 5.02533 14.9745C5.37866 15.3283 5.77955 15.6181 6.22177 15.8394Z" fill="white"/>
<path d="M2.96444 9.99977C2.96444 10.5002 3.04311 10.9882 3.19911 11.4575L0.444443 9.99977L3.19867 8.54199C3.04267 9.01133 2.96444 9.49933 2.96444 9.99977Z" fill="white"/>
<path d="M6.22177 4.16025C5.77955 4.38159 5.3791 4.67136 5.02533 5.02514C4.67155 5.37892 4.38221 5.77981 4.16044 6.22159L3.2431 3.24292L6.22177 4.16025Z" fill="white"/>
<path d="M11.4578 3.19856C10.9884 3.04256 10.5004 2.96389 10 2.96389C9.49955 2.96389 9.01155 3.04256 8.54222 3.19856L10 0.444336L11.4578 3.19856Z" fill="white"/>
<path d="M16.7569 3.24292L15.84 6.22159C15.6178 5.77936 15.3285 5.37892 14.9747 5.02514C14.6209 4.67136 14.22 4.38203 13.7782 4.16025L16.7569 3.24292Z" fill="white"/>
<path d="M16.8013 11.4575C16.9573 10.9882 17.036 10.5002 17.036 9.99977C17.036 9.49933 16.9573 9.01133 16.8013 8.54199L19.5556 9.99977L16.8013 11.4575Z" fill="white"/>
<path d="M10 4.94482C7.21244 4.94482 4.94489 7.21238 4.94489 9.99994C4.94489 12.7875 7.21244 15.055 10 15.055C12.7876 15.055 15.0551 12.7875 15.0551 9.99994C15.0551 7.21238 12.7876 4.94482 10 4.94482Z" fill="white"/>
<path d="M16.7569 16.7567L13.7782 15.8394C14.2205 15.6181 14.6209 15.3283 14.9747 14.9745C15.3285 14.6207 15.6178 14.2199 15.84 13.7781L16.7569 16.7567Z" fill="white"/>
<path d="M11.4578 16.8013L10 19.5555L8.54222 16.8013C9.01155 16.9573 9.49955 17.0359 10 17.0359C10.5004 17.0355 10.9884 16.9573 11.4578 16.8013Z" fill="white"/>
</g>
<defs>
<clipPath id="clip0_71_1466">
<rect width="20" height="20" fill="white"/>
</clipPath>
</defs>
</svg>
