<svg width="36" height="35" viewBox="0 0 36 35" fill="none" xmlns="http://www.w3.org/2000/svg">
<path opacity="0.2" fill-rule="evenodd" clip-rule="evenodd" d="M18 27.7083C23.6379 27.7083 28.2084 23.1379 28.2084 17.5C28.2084 11.8621 23.6379 7.29163 18 7.29163C12.3621 7.29163 7.79169 11.8621 7.79169 17.5C7.79169 23.1379 12.3621 27.7083 18 27.7083ZM18 32.0833C26.0542 32.0833 32.5834 25.5541 32.5834 17.5C32.5834 9.44581 26.0542 2.91663 18 2.91663C9.94587 2.91663 3.41669 9.44581 3.41669 17.5C3.41669 25.5541 9.94587 32.0833 18 32.0833Z" fill="white"/>
<path d="M3.41669 17.5C3.41669 9.44581 9.94587 2.91663 18 2.91663V7.29163C12.3621 7.29163 7.79169 11.8621 7.79169 17.5H3.41669Z" fill="white"/>
</svg>
