<?xml version="1.0" standalone="no"?>
<!DOCTYPE svg PUBLIC "-//W3C//DTD SVG 20010904//EN"
 "http://www.w3.org/TR/2001/REC-SVG-20010904/DTD/svg10.dtd">
<svg version="1.0" xmlns="http://www.w3.org/2000/svg"
 width="113.000000pt" height="113.000000pt" viewBox="0 0 113.000000 113.000000"
 preserveAspectRatio="xMidYMid meet">
<metadata>
Created by potrace 1.14, written by Peter Selinger 2001-2017
</metadata>
<g transform="translate(0.000000,113.000000) scale(0.100000,-0.100000)"
fill="#000000" stroke="none">
<path d="M423 1111 c-205 -59 -365 -228 -407 -431 -24 -117 -6 -262 45 -362
11 -21 22 -38 26 -38 3 0 39 21 80 46 70 44 83 59 64 80 -10 11 -30 87 -35
131 -9 84 30 201 91 273 34 41 113 92 173 112 59 20 170 17 235 -6 193 -68
298 -297 222 -484 l-23 -58 77 -47 c42 -26 80 -47 83 -47 9 0 43 76 61 136 22
75 17 246 -9 325 -58 169 -190 302 -356 359 -88 31 -240 35 -327 11z"/>
<path d="M576 760 c-7 -8 -39 -56 -70 -107 l-58 -92 30 -43 c16 -24 31 -47 33
-53 2 -5 19 -34 37 -62 l34 -53 54 0 54 0 -32 58 c-17 31 -41 73 -53 92 -33
53 -37 71 -22 89 8 9 27 41 43 71 15 30 37 67 47 83 10 15 15 28 10 28 -45 8
-96 3 -107 -11z"/>
<path d="M181 296 l-80 -49 19 -28 c31 -42 116 -115 173 -148 126 -72 316 -89
455 -42 88 30 183 92 242 159 l50 56 -82 52 -82 52 -30 -33 c-81 -86 -178
-126 -296 -121 -95 5 -170 37 -239 103 l-50 48 -80 -49z"/>
</g>
</svg>
